<svg version="1.2" baseProfile="tiny-ps" xmlns="http://www.w3.org/2000/svg" viewBox="0 0 165 36" width="165" height="36">
	<title>AllSides-Logo-svg</title>
	<style>
		tspan { white-space:pre }
		.shp0 { fill: #353c40 } 
		.shp1 { fill: #dd2a19 } 
		.shp2 { fill: #2062a6 } 
		.shp3 { fill: #8c63a6 } 
	</style>
	<g id="Layer 2">
		<g id="&lt;Group&gt;">
			<g id="&lt;Group&gt;">
				<path id="&lt;Compound Path&gt;" fill-rule="evenodd" class="shp0" d="M51.09 30.89L49.6 25.93L40 25.93L38.52 30.89L33.37 30.89L42.03 5.53L47.47 5.53L56.2 30.89L51.09 30.89ZM44.82 10.09L41.27 21.76L48.34 21.76L44.82 10.09Z" />
				<path id="&lt;Compound Path&gt;" class="shp0" d="M57.36 30.89L57.36 5.53L61.78 5.53L61.78 30.89L57.36 30.89Z" />
				<path id="&lt;Compound Path&gt;" class="shp0" d="M64.86 30.89L64.86 5.53L69.28 5.53L69.28 30.89L64.86 30.89Z" />
				<path id="&lt;Compound Path&gt;" class="shp0" d="M90.41 28.91C87.33 31.5 83.2 31.53 82.04 31.53C80.51 31.53 75.62 31.46 72.07 27.76C71.64 27.3 71.17 26.68 70.84 26.11L74.86 23.34C75.99 25 78.09 27.15 82.8 27.15C83.02 27.15 83.92 27.15 84.68 26.97C85.23 26.87 87.73 26.18 87.73 23.81C87.73 23.56 87.69 22.88 87.26 22.3C86.38 21.15 84.07 20.83 82.8 20.54L79.76 19.86C78.45 19.57 77.04 19.28 75.88 18.67C74.68 18.06 72.22 16.45 72.22 12.78C72.22 12.21 72.29 10.56 73.2 9.05C74.35 7.11 77.14 4.88 82.33 4.88C84.61 4.88 89.1 5.24 92.66 10.02L88.71 12.92C87.91 11.67 86.1 9.16 82.07 9.16C81.82 9.16 78.59 9.12 77.54 11.09C77.33 11.49 77.26 11.85 77.26 12.24C77.26 12.67 77.36 13.04 77.58 13.39C78.2 14.44 79.61 14.76 81.97 15.26L84.61 15.84C87.04 16.38 89.72 17.09 91.42 19.07C92.15 19.86 92.91 21.01 92.91 23.34C92.91 25.64 92.18 27.4 90.41 28.91Z" />
				<path id="&lt;Compound Path&gt;" class="shp0" d="M94.98 10.12L94.98 5.53L99.29 5.53L99.29 10.12L94.98 10.12ZM94.98 30.89L94.98 12.92L99.29 12.92L99.29 30.89L94.98 30.89Z" />
				<path id="&lt;Compound Path&gt;" fill-rule="evenodd" class="shp0" d="M114.51 30.89L114.51 29.16C114.32 29.34 114.18 29.56 114 29.74C113.31 30.39 111.82 31.43 109.47 31.43C108.86 31.43 107.55 31.36 106.1 30.67C104.14 29.77 101.42 27.44 101.42 22.27C101.42 16.77 104.43 13.93 106.5 13C107.08 12.75 108.13 12.39 109.65 12.39C110.27 12.39 111.57 12.42 112.95 13.18C113.2 13.32 113.42 13.43 113.85 13.75C114.18 14 114.43 14.33 114.51 14.4L114.51 5.53L118.82 5.53L118.82 30.89L114.51 30.89ZM113.67 18.28C113.46 17.88 113.06 17.42 112.73 17.17C112.01 16.59 111.21 16.38 110.3 16.38C109.94 16.38 109 16.45 108.09 17.02C106.03 18.35 105.95 21.26 105.95 21.8C105.95 24.46 107.08 27.51 110.27 27.51C111.43 27.51 112.33 27.15 113.09 26.29C114.22 25.07 114.51 23.6 114.47 21.98C114.47 20.83 114.29 19.36 113.67 18.28Z" />
				<path id="&lt;Compound Path&gt;" fill-rule="evenodd" class="shp0" d="M137.41 28.73C136.4 29.67 133.97 31.43 130.23 31.43C129.07 31.43 126.21 31.28 123.75 29.02C121.68 27.08 120.92 24.6 120.92 21.8C120.92 20.29 121.14 18.85 121.72 17.49C122.52 15.69 124.76 12.39 130.02 12.39C134.07 12.39 136.21 14.47 137.16 15.84C137.99 17.09 138.82 19.28 138.93 22.77L125.52 22.77C125.6 23.31 125.78 24.42 126.68 25.5C127.3 26.25 128.39 27.22 130.63 27.22C132.88 27.22 134.18 26.18 134.76 25.57C134.91 25.43 135.13 25.14 135.38 24.75L139.08 26.87C138.79 27.26 138.28 27.94 137.41 28.73ZM133.79 18.13C133.39 17.27 132.44 15.84 130.09 15.84C129.15 15.84 128.64 16.02 128.28 16.16C126.25 16.99 125.78 19 125.67 19.61L134.15 19.61C134.08 19.03 133.96 18.54 133.79 18.13Z" />
				<path id="&lt;Compound Path&gt;" class="shp0" d="M155.53 27.73C154.66 29.38 152.41 31.43 147.99 31.43C144.59 31.43 142.16 30.28 141.03 29.59C140.42 29.2 139.84 28.73 139.29 28.19L142.55 25.57C142.7 25.75 142.92 26.07 143.39 26.47C144.95 27.8 147.27 27.87 147.77 27.87C148.86 27.87 150.13 27.62 150.85 26.79C151.14 26.51 151.32 26.11 151.32 25.75C151.32 25.61 151.29 25.32 151.03 25C150.56 24.35 149.98 24.31 148.64 24.03C147.45 23.77 146.25 23.63 145.09 23.34C144.29 23.13 140.09 22.12 140.09 18.24C140.09 16.88 140.67 15.87 140.92 15.48C141.83 14.08 143.97 12.39 147.88 12.39C149.29 12.39 152.96 12.6 155.67 15.73L152.59 18.57C152.23 17.81 151.76 17.38 151.47 17.13C150.35 16.16 149.15 15.84 147.67 15.84C147.49 15.84 146.25 15.84 145.46 16.38C144.8 16.81 144.66 17.38 144.66 17.7C144.69 18.31 145.13 18.75 145.24 18.82C145.71 19.18 146.91 19.46 148.35 19.72C149.33 19.9 150.31 20.04 151.29 20.25C152.27 20.47 153.35 20.79 154.15 21.37C154.8 21.84 156.14 23.09 156.14 25.28C156.14 26.15 155.93 26.97 155.53 27.73Z" />
			</g>
		</g>
		<g id="&lt;Group&gt;">
			<g id="&lt;Group&gt;">
				<path id="TM " class="shp0" d="M159.59 12.54L159.59 11.96L155.63 11.96L155.63 12.54L157.25 12.54L157.25 16.55L157.98 16.55L157.98 12.54L159.59 12.54ZM164.99 11.96L163.84 11.96L162.62 15.9L161.4 11.96L160.21 11.96L160.21 16.55L160.95 16.55L160.95 14.3C160.95 13.77 160.95 13.15 160.93 12.66C161.06 13.15 161.25 13.77 161.42 14.28L162.17 16.55L163.02 16.55L163.77 14.29C163.94 13.77 164.14 13.14 164.27 12.66C164.26 13.14 164.26 13.77 164.26 14.3L164.26 16.55L164.99 16.55L164.99 11.96Z" />
			</g>
		</g>
		<path id="&lt;Path&gt;" class="shp1" d="M14.17 14.77L6.49 6.17C5.59 5.16 4.49 5.37 4.06 6.65L0.37 17.47C-0.06 18.75 0.33 20.62 1.23 21.64L2.99 23.61L6.67 33.58C6.94 34.31 7.22 34.27 7.3 33.5L7.78 28.97L8.91 30.23C9.81 31.24 10.91 31.03 11.34 29.75L15.03 18.93C15.46 17.65 15.08 15.78 14.17 14.77Z" />
		<path id="&lt;Path&gt;" class="shp2" d="M31.55 14.47L20.27 16.79C18.94 17.06 17.49 18.32 17.06 19.6L13.38 30.43C12.94 31.7 13.68 32.52 15 32.25L19.23 31.38L25.65 35.8C26.02 36.05 26.31 35.89 26.28 35.45L26.03 29.99L26.29 29.94C27.62 29.66 29.06 28.4 29.5 27.12L33.18 16.3C33.62 15.02 32.89 14.2 31.55 14.47Z" />
		<path id="&lt;Path&gt;" class="shp3" d="M31.9 10.05L30.21 8.15L30.79 2.09C30.84 1.65 30.53 1.43 30.12 1.6L25.93 3.37L24.22 1.45C23.32 0.44 21.49 -0.16 20.16 0.11L8.87 2.42C7.54 2.7 7.19 3.75 8.1 4.76L15.78 13.36C16.68 14.37 18.51 14.98 19.84 14.7L31.12 12.39C32.46 12.12 32.8 11.06 31.9 10.05Z" />
	</g>
</svg>